# Blender 4.2.3 LTS
# www.blender.org
mtllib 2carreChocolate.mtl
o chocolate_bar
v -1.055384 0.016269 0.577660
v -1.055384 0.114611 0.577660
v -1.055384 0.114611 -0.577660
v -1.055384 0.016269 -0.577660
v -1.055384 0.114611 -0.346596
v -1.055384 0.016269 -0.346596
v -1.055384 0.114611 -0.115532
v -1.055384 0.016269 -0.115532
v -1.055384 0.114611 0.115532
v -1.055384 0.016269 0.115532
v -1.055384 0.114611 0.346596
v -1.055384 0.016269 0.346596
v -0.753846 0.114611 0.346596
v -0.753846 0.114611 0.577660
v -0.753846 0.016269 0.577660
v -0.753846 0.016269 0.346596
v -0.753846 0.016269 0.115532
v -0.753846 0.016269 -0.115532
v -0.753846 0.016269 -0.346596
v -0.753846 0.016269 -0.577660
v -0.753846 0.114611 -0.577660
v -0.753846 0.114611 -0.346596
v -0.753846 0.114611 -0.115532
v -0.753846 0.114611 0.115532
v -0.452307 0.114611 0.346596
v -0.452307 0.114611 0.577660
v -0.452307 0.016269 0.577660
v -0.452307 0.016269 0.346596
v -0.452307 0.016269 0.115532
v -0.452307 0.016269 -0.115532
v -0.452307 0.016269 -0.346596
v -0.452307 0.016269 -0.577660
v -0.452307 0.114611 -0.577660
v -0.452307 0.114611 -0.346596
v -0.452307 0.114611 -0.115532
v -0.452307 0.114611 0.115532
v -1.027743 0.154452 0.556479
v -0.781487 0.154452 0.556479
v -0.781487 0.154452 0.367777
v -1.027743 0.154452 0.367777
v -0.781487 0.154452 -0.367777
v -1.027743 0.154452 -0.367777
v -0.781487 0.154452 -0.556479
v -1.027743 0.154452 -0.556479
v -0.781487 0.154452 -0.136713
v -1.027743 0.154452 -0.136713
v -0.781487 0.154452 -0.325415
v -1.027743 0.154452 -0.325415
v -0.781487 0.154452 0.094351
v -1.027743 0.154452 0.094351
v -0.781487 0.154452 -0.094351
v -1.027743 0.154452 -0.094351
v -0.781487 0.154452 0.325415
v -1.027743 0.154452 0.325415
v -0.781487 0.154452 0.136713
v -1.027743 0.154452 0.136713
v -0.726205 0.154452 0.556479
v -0.479948 0.154452 0.556479
v -0.479948 0.154452 0.367777
v -0.726205 0.154452 0.367777
v -0.479948 0.154452 -0.367777
v -0.726205 0.154452 -0.367777
v -0.479948 0.154452 -0.556479
v -0.726205 0.154452 -0.556479
v -0.479948 0.154452 -0.136713
v -0.726205 0.154452 -0.136713
v -0.479948 0.154452 -0.325415
v -0.726205 0.154452 -0.325415
v -0.479948 0.154452 0.094351
v -0.726205 0.154452 0.094351
v -0.479948 0.154452 -0.094351
v -0.726205 0.154452 -0.094351
v -0.726205 0.154452 0.136713
v -0.726205 0.154452 0.325415
v -0.479948 0.154452 0.325415
v -0.479948 0.154452 0.136713
vn -1.0000 -0.0000 -0.0000
vn -0.0000 1.0000 -0.0000
vn -0.0000 -0.0000 1.0000
vn -0.0000 -1.0000 -0.0000
vn -0.0000 -0.0000 -1.0000
vn -0.0000 0.4694 0.8830
vn 0.8216 0.5700 -0.0000
vn -0.0000 0.4694 -0.8830
vn -0.8216 0.5700 -0.0000
vn 1.0000 -0.0000 -0.0000
vt 0.325000 0.000000
vt 0.375000 0.000000
vt 0.375000 0.250000
vt 0.325000 0.250000
vt 0.125000 0.000000
vt 0.175000 0.000000
vt 0.175000 0.250000
vt 0.125000 0.250000
vt 0.225000 0.000000
vt 0.225000 0.250000
vt 0.275000 0.000000
vt 0.275000 0.250000
vt 0.410714 0.250000
vt 0.410714 0.300000
vt 0.375000 0.300000
vt 0.410714 0.000000
vt 0.375000 0.950000
vt 0.410714 0.950000
vt 0.410714 1.000000
vt 0.375000 1.000000
vt 0.375000 0.900000
vt 0.410714 0.900000
vt 0.375000 0.850000
vt 0.410714 0.850000
vt 0.375000 0.800000
vt 0.410714 0.800000
vt 0.375000 0.750000
vt 0.410714 0.750000
vt 0.375000 0.500000
vt 0.410714 0.500000
vt 0.375000 0.450000
vt 0.410714 0.450000
vt 0.375000 0.400000
vt 0.410714 0.400000
vt 0.375000 0.350000
vt 0.410714 0.350000
vt 0.446429 0.250000
vt 0.446429 0.300000
vt 0.446429 0.000000
vt 0.446429 0.950000
vt 0.446429 1.000000
vt 0.446429 0.900000
vt 0.446429 0.850000
vt 0.446429 0.800000
vt 0.446429 0.750000
vt 0.446429 0.500000
vt 0.446429 0.450000
vt 0.446429 0.400000
vt 0.446429 0.350000
s 0
usemtl lambert2SG
f 12/1/1 1/2/1 2/3/1 11/4/1
f 4/5/1 6/6/1 5/7/1 3/8/1
f 6/6/1 8/9/1 7/10/1 5/7/1
f 8/9/1 10/11/1 9/12/1 7/10/1
f 10/11/1 12/1/1 11/4/1 9/12/1
f 37/3/2 38/13/2 39/14/2 40/15/2
f 1/2/3 15/16/3 14/13/3 2/3/3
f 12/17/4 16/18/4 15/19/4 1/20/4
f 10/21/4 17/22/4 16/18/4 12/17/4
f 8/23/4 18/24/4 17/22/4 10/21/4
f 6/25/4 19/26/4 18/24/4 8/23/4
f 4/27/4 20/28/4 19/26/4 6/25/4
f 3/29/5 21/30/5 20/28/5 4/27/5
f 42/31/2 41/32/2 43/30/2 44/29/2
f 46/33/2 45/34/2 47/32/2 48/31/2
f 50/35/2 49/36/2 51/34/2 52/33/2
f 54/15/2 53/14/2 55/36/2 56/35/2
f 57/13/2 58/37/2 59/38/2 60/14/2
f 15/16/3 27/39/3 26/37/3 14/13/3
f 16/18/4 28/40/4 27/41/4 15/19/4
f 17/22/4 29/42/4 28/40/4 16/18/4
f 18/24/4 30/43/4 29/42/4 17/22/4
f 19/26/4 31/44/4 30/43/4 18/24/4
f 20/28/4 32/45/4 31/44/4 19/26/4
f 21/30/5 33/46/5 32/45/5 20/28/5
f 62/32/2 61/47/2 63/46/2 64/30/2
f 66/34/2 65/48/2 67/47/2 68/32/2
f 70/36/2 69/49/2 71/48/2 72/34/2
f 73/36/2 74/14/2 75/38/2 76/49/2
f 2/3/6 14/13/6 38/13/6 37/3/6
f 14/13/7 13/14/7 39/14/7 38/13/7
f 13/14/8 11/15/8 40/15/8 39/14/8
f 11/15/9 2/3/9 37/3/9 40/15/9
f 5/31/6 22/32/6 41/32/6 42/31/6
f 22/32/7 21/30/7 43/30/7 41/32/7
f 21/30/8 3/29/8 44/29/8 43/30/8
f 3/29/9 5/31/9 42/31/9 44/29/9
f 7/33/6 23/34/6 45/34/6 46/33/6
f 23/34/7 22/32/7 47/32/7 45/34/7
f 22/32/8 5/31/8 48/31/8 47/32/8
f 5/31/9 7/33/9 46/33/9 48/31/9
f 9/35/6 24/36/6 49/36/6 50/35/6
f 24/36/7 23/34/7 51/34/7 49/36/7
f 23/34/8 7/33/8 52/33/8 51/34/8
f 7/33/9 9/35/9 50/35/9 52/33/9
f 11/15/6 13/14/6 53/14/6 54/15/6
f 13/14/7 24/36/7 55/36/7 53/14/7
f 24/36/8 9/35/8 56/35/8 55/36/8
f 9/35/9 11/15/9 54/15/9 56/35/9
f 14/13/6 26/37/6 58/37/6 57/13/6
f 26/37/7 25/38/7 59/38/7 58/37/7
f 25/38/8 13/14/8 60/14/8 59/38/8
f 13/14/9 14/13/9 57/13/9 60/14/9
f 22/32/6 34/47/6 61/47/6 62/32/6
f 34/47/7 33/46/7 63/46/7 61/47/7
f 33/46/8 21/30/8 64/30/8 63/46/8
f 21/30/9 22/32/9 62/32/9 64/30/9
f 23/34/6 35/48/6 65/48/6 66/34/6
f 35/48/7 34/47/7 67/47/7 65/48/7
f 34/47/8 22/32/8 68/32/8 67/47/8
f 22/32/9 23/34/9 66/34/9 68/32/9
f 24/36/6 36/49/6 69/49/6 70/36/6
f 36/49/7 35/48/7 71/48/7 69/49/7
f 35/48/8 23/34/8 72/34/8 71/48/8
f 23/34/9 24/36/9 70/36/9 72/34/9
f 24/36/9 13/14/9 74/14/9 73/36/9
f 13/14/6 25/38/6 75/38/6 74/14/6
f 25/38/7 36/49/7 76/49/7 75/38/7
f 36/49/8 24/36/8 73/36/8 76/49/8
f 29/42/1 28/40/1 27/41/1 26/37/1 25/38/1 36/49/1
f 26/37/10 27/41/10 28/40/10 25/38/10
f 29/42/10 30/43/10 35/48/10 36/49/10
f 30/43/10 31/44/10 34/47/10 35/48/10
f 31/44/10 32/45/10 33/46/10 34/47/10
